<svg width="13" height="16" viewBox="0 0 13 16" fill="none" xmlns="http://www.w3.org/2000/svg">
<path d="M4.70161 0.25C4.38093 0.25 4.12097 0.509964 4.12097 0.830645V1.41129H0.830645C0.509964 1.41129 0.25 1.67125 0.25 1.99194C0.25 2.31262 0.509964 2.57258 0.830645 2.57258H11.6694C11.99 2.57258 12.25 2.31262 12.25 1.99194C12.25 1.67125 11.99 1.41129 11.6694 1.41129H8.37903V0.830645C8.37903 0.509964 8.11907 0.25 7.79839 0.25H4.70161Z" fill="white"/>
<path d="M4.70161 6.75322C5.02229 6.75322 5.28226 7.01318 5.28226 7.33387L5.28226 12.7532C5.28226 13.0739 5.02229 13.3339 4.70161 13.3339C4.38093 13.3339 4.12097 13.0739 4.12097 12.7532L4.12097 7.33387C4.12097 7.01318 4.38093 6.75322 4.70161 6.75322Z" fill="white"/>
<path d="M8.37903 7.33387C8.37903 7.01318 8.11907 6.75322 7.79839 6.75322C7.47771 6.75322 7.21774 7.01318 7.21774 7.33387V12.7532C7.21774 13.0739 7.4777 13.3339 7.79839 13.3339C8.11907 13.3339 8.37903 13.0739 8.37903 12.7532V7.33387Z" fill="white"/>
<path fill-rule="evenodd" clip-rule="evenodd" d="M1.5982 4.63749C1.63087 4.34343 1.87943 4.12097 2.17529 4.12097H10.3247C10.6206 4.12097 10.8691 4.34343 10.9018 4.63749L11.0567 6.03208C11.3376 8.56007 11.3376 11.1114 11.0567 13.6394L11.0415 13.7767C10.93 14.7802 10.1523 15.5803 9.15238 15.7203C7.22685 15.9899 5.27314 15.9899 3.34761 15.7203C2.34771 15.5803 1.57 14.7802 1.4585 13.7767L1.44325 13.6394C1.16236 11.1114 1.16236 8.56007 1.44325 6.03208L1.5982 4.63749ZM2.695 5.28226L2.59743 6.16032C2.32602 8.60308 2.32602 11.0684 2.59743 13.5112L2.61269 13.6484C2.66557 14.1244 3.03441 14.5038 3.50862 14.5702C5.32734 14.8248 7.17266 14.8248 8.99137 14.5702C9.46559 14.5038 9.83443 14.1244 9.8873 13.6484L9.90256 13.5112C10.174 11.0684 10.174 8.60308 9.90256 6.16033L9.805 5.28226H2.695Z" fill="white"/>
</svg>
