<svg width="17" height="13" viewBox="0 0 17 13" fill="none" xmlns="http://www.w3.org/2000/svg">
<path fill-rule="evenodd" clip-rule="evenodd" d="M14.9531 10.1592C15.3097 8.20739 15.3321 6.20922 15.0194 4.24994L14.9653 3.91069C14.8894 3.43569 14.4797 3.08618 13.9987 3.08618H6.63567C6.14125 3.08618 5.74044 2.68537 5.74044 2.19095C5.74044 1.81908 5.43898 1.51762 5.06711 1.51762H3.13056C2.62602 1.51762 2.20104 1.89461 2.14089 2.39555L1.91062 4.31313C1.68099 6.22538 1.74025 8.1613 2.08642 10.0559C2.16461 10.4839 2.52252 10.8047 2.95645 10.8357L4.2359 10.9272C7.09445 11.1317 9.96395 11.1317 12.8225 10.9272L14.2066 10.8282C14.5789 10.8016 14.886 10.5263 14.9531 10.1592ZM16.2712 4.05014C16.6065 6.15121 16.5825 8.29398 16.2001 10.387C16.0291 11.323 15.2462 12.0247 14.2971 12.0926L12.9129 12.1916C9.99418 12.4004 7.06422 12.4004 4.14545 12.1916L2.86599 12.1001C1.85525 12.0278 1.02158 11.2806 0.839448 10.2838C0.470432 8.26411 0.407257 6.20044 0.652042 4.162L0.882314 2.24442C1.01897 1.10643 1.98439 0.25 3.13056 0.25L5.06711 0.25C6.0117 0.25 6.79869 0.92476 6.97237 1.81857L13.9987 1.81857C15.1027 1.81857 16.043 2.62072 16.217 3.71089L16.2712 4.05014Z" fill="white"/>
</svg>
