<svg width="17" height="17" viewBox="0 0 17 17" fill="none" xmlns="http://www.w3.org/2000/svg">
<path fill-rule="evenodd" clip-rule="evenodd" d="M16.454 2.91302C16.6157 3.15791 16.5887 3.49069 16.3731 3.70628L8.64052 11.4389C8.56126 11.5181 8.46231 11.5749 8.35385 11.6032L5.13339 12.4444C5.02835 12.4718 4.92008 12.4713 4.81836 12.4454C4.71021 12.4179 4.60946 12.3617 4.52785 12.2801C4.36947 12.1217 4.30694 11.8912 4.36354 11.6745L5.20474 8.45406C5.22953 8.35917 5.27604 8.26544 5.34038 8.19192L13.1016 0.434786C13.1696 0.366847 13.2514 0.316 13.3405 0.28502C13.4065 0.26205 13.4765 0.25 13.5478 0.25C13.7151 0.25 13.8756 0.316469 13.9939 0.434786L16.3731 2.81405C16.4039 2.84485 16.4309 2.87804 16.454 2.91302ZM15.0348 3.26016L13.5478 1.77312L6.3823 8.93858L5.85656 10.9514L7.86935 10.4256L15.0348 3.26016Z" fill="white"/>
<path d="M14.9285 12.7925C15.1584 10.8261 15.2316 8.84601 15.148 6.87089C15.144 6.77632 15.1796 6.6843 15.2465 6.61738L16.0737 5.7902C16.1754 5.6885 16.3491 5.75306 16.3587 5.89657C16.5142 8.24322 16.4552 10.6005 16.1817 12.9391C15.9827 14.6404 14.6163 15.9737 12.9238 16.1629C10.0077 16.4888 6.99344 16.4888 4.07736 16.1629C2.38483 15.9737 1.01844 14.6404 0.819454 12.9391C0.470745 9.95764 0.470745 6.9457 0.819454 3.96425C1.01844 2.2629 2.38483 0.929594 4.07736 0.740428C6.2895 0.493189 8.55816 0.433506 10.7976 0.561379C10.9419 0.56962 11.0077 0.744267 10.9055 0.846488L10.0706 1.68142C10.0044 1.74762 9.91359 1.78317 9.82002 1.78002C7.94716 1.71685 6.06157 1.78832 4.21752 1.99442C3.09863 2.11947 2.20235 3.0024 2.07271 4.11083C1.73539 6.99489 1.73539 9.90845 2.07271 12.7925C2.20235 13.9009 3.09863 14.7839 4.21751 14.9089C7.04045 15.2244 9.96072 15.2244 12.7837 14.9089C13.9025 14.7839 14.7988 13.9009 14.9285 12.7925Z" fill="white"/>
</svg>
