<svg width="144" height="25" viewBox="0 0 144 25" fill="none" xmlns="http://www.w3.org/2000/svg">
<path d="M19.2036 10.4328L6.95513 22.6818L4.2502 20.7497L16.8856 7.34198L19.2036 10.4328Z" fill="#FF9D49"/>
<path d="M17.272 7.72834L4.25019 20.7497L2.31802 18.0447L14.567 5.79626L17.272 7.72834Z" fill="#FFCC75"/>
<path d="M25 4.63698L21.5225 8.11451L18.4314 5.7963L22.6817 2.31866L25 4.63698Z" fill="#BD1515"/>
<path d="M22.6814 2.31848L18.8175 6.1824L16.8856 3.47776L20.3632 0.00012207L22.6814 2.31848Z" fill="#F2484B"/>
<path d="M19.2037 10.4326L21.5224 8.11389L16.8857 3.47728L14.5671 5.79596L19.2037 10.4326Z" fill="#082947"/>
<path d="M3.47754 23.8409L0 24.9999L1.15898 21.5223L3.09106 21.9088L3.47754 23.8409Z" fill="#082947"/>
<path d="M2.31801 18.0448L1.15898 21.5223L3.47754 23.8409L6.95512 22.6819L2.31801 18.0448Z" fill="#F2EBD9"/>
<path d="M37.7045 6.36364L40.733 15.5227H40.8523L43.875 6.36364H46.1932L42.0909 18H39.4886L35.392 6.36364H37.7045ZM47.6349 18V9.27273H49.6918V18H47.6349ZM48.669 8.03409C48.3433 8.03409 48.063 7.92614 47.8281 7.71023C47.5933 7.49053 47.4759 7.22727 47.4759 6.92045C47.4759 6.60985 47.5933 6.34659 47.8281 6.13068C48.063 5.91098 48.3433 5.80114 48.669 5.80114C48.9986 5.80114 49.2789 5.91098 49.5099 6.13068C49.7448 6.34659 49.8622 6.60985 49.8622 6.92045C49.8622 7.22727 49.7448 7.49053 49.5099 7.71023C49.2789 7.92614 48.9986 8.03409 48.669 8.03409ZM53.6818 15.2614L53.6761 12.7784H54.0057L57.142 9.27273H59.5455L55.6875 13.5682H55.2614L53.6818 15.2614ZM51.8068 18V6.36364H53.8636V18H51.8068ZM57.2841 18L54.4432 14.0284L55.8295 12.5795L59.7443 18H57.2841ZM65.2741 9.27273V10.8636H60.2571V9.27273H65.2741ZM61.4957 7.18182H63.5526V15.375C63.5526 15.6515 63.5942 15.8636 63.6776 16.0114C63.7647 16.1553 63.8783 16.2538 64.0185 16.3068C64.1586 16.3598 64.3139 16.3864 64.4844 16.3864C64.6132 16.3864 64.7306 16.3769 64.8366 16.358C64.9465 16.339 65.0298 16.322 65.0866 16.3068L65.4332 17.9148C65.3234 17.9527 65.1662 17.9943 64.9616 18.0398C64.7609 18.0852 64.5147 18.1117 64.223 18.1193C63.7079 18.1345 63.2438 18.0568 62.831 17.8864C62.4181 17.7121 62.0904 17.4432 61.848 17.0795C61.6094 16.7159 61.492 16.2614 61.4957 15.7159V7.18182ZM70.7074 18.1705C69.8551 18.1705 69.1165 17.983 68.4915 17.608C67.8665 17.233 67.3816 16.7083 67.0369 16.0341C66.696 15.3598 66.5256 14.572 66.5256 13.6705C66.5256 12.7689 66.696 11.9792 67.0369 11.3011C67.3816 10.6231 67.8665 10.0966 68.4915 9.72159C69.1165 9.34659 69.8551 9.15909 70.7074 9.15909C71.5597 9.15909 72.2983 9.34659 72.9233 9.72159C73.5483 10.0966 74.0313 10.6231 74.3722 11.3011C74.7169 11.9792 74.8892 12.7689 74.8892 13.6705C74.8892 14.572 74.7169 15.3598 74.3722 16.0341C74.0313 16.7083 73.5483 17.233 72.9233 17.608C72.2983 17.983 71.5597 18.1705 70.7074 18.1705ZM70.7188 16.5227C71.1809 16.5227 71.5672 16.3958 71.8778 16.142C72.1884 15.8845 72.4195 15.5398 72.571 15.108C72.7263 14.6761 72.804 14.1951 72.804 13.6648C72.804 13.1307 72.7263 12.6477 72.571 12.2159C72.4195 11.7803 72.1884 11.4337 71.8778 11.1761C71.5672 10.9186 71.1809 10.7898 70.7188 10.7898C70.2453 10.7898 69.8513 10.9186 69.5369 11.1761C69.2263 11.4337 68.9934 11.7803 68.8381 12.2159C68.6866 12.6477 68.6108 13.1307 68.6108 13.6648C68.6108 14.1951 68.6866 14.6761 68.8381 15.108C68.9934 15.5398 69.2263 15.8845 69.5369 16.142C69.8513 16.3958 70.2453 16.5227 70.7188 16.5227ZM76.6349 18V9.27273H78.6293V10.7273H78.7202C78.8793 10.2235 79.152 9.83523 79.5384 9.5625C79.9285 9.28598 80.3736 9.14773 80.8736 9.14773C80.9872 9.14773 81.1141 9.15341 81.2543 9.16477C81.3982 9.17235 81.5175 9.18561 81.6122 9.20455V11.0966C81.5251 11.0663 81.3868 11.0398 81.1974 11.017C81.0118 10.9905 80.8319 10.9773 80.6577 10.9773C80.2827 10.9773 79.9455 11.0587 79.6463 11.2216C79.3509 11.3807 79.1179 11.6023 78.9474 11.8864C78.777 12.1705 78.6918 12.4981 78.6918 12.8693V18H76.6349ZM84.9886 6.36364V7.52273C84.9886 7.85606 84.9242 8.20265 84.7955 8.5625C84.6705 8.91856 84.4981 9.25947 84.2784 9.58523C84.0587 9.9072 83.8087 10.1837 83.5284 10.4148L82.5739 9.79545C82.7822 9.48106 82.964 9.14205 83.1193 8.77841C83.2746 8.41098 83.3523 7.99621 83.3523 7.53409V6.36364H84.9886ZM92.4233 11.5795L90.5483 11.7841C90.4953 11.5947 90.4025 11.4167 90.2699 11.25C90.1411 11.0833 89.9669 10.9489 89.7472 10.8466C89.5275 10.7443 89.2585 10.6932 88.9403 10.6932C88.5123 10.6932 88.1525 10.786 87.8608 10.9716C87.5729 11.1572 87.4309 11.3977 87.4347 11.6932C87.4309 11.947 87.5237 12.1534 87.7131 12.3125C87.9063 12.4716 88.2244 12.6023 88.6676 12.7045L90.1562 13.0227C90.982 13.2008 91.5956 13.483 91.9972 13.8693C92.4025 14.2557 92.607 14.7614 92.6108 15.3864C92.607 15.9356 92.446 16.4205 92.1278 16.8409C91.8134 17.2576 91.3759 17.5833 90.8153 17.8182C90.2547 18.053 89.6108 18.1705 88.8835 18.1705C87.8153 18.1705 86.9555 17.947 86.304 17.5C85.6525 17.0492 85.2642 16.4223 85.1392 15.6193L87.1449 15.4261C87.2358 15.8201 87.429 16.1174 87.7244 16.3182C88.0199 16.5189 88.4044 16.6193 88.8778 16.6193C89.3665 16.6193 89.7585 16.5189 90.054 16.3182C90.3532 16.1174 90.5028 15.8693 90.5028 15.5739C90.5028 15.3239 90.4063 15.1174 90.2131 14.9545C90.0237 14.7917 89.7282 14.6667 89.3267 14.5795L87.8381 14.267C87.0009 14.0928 86.3816 13.7992 85.9801 13.3864C85.5786 12.9697 85.3797 12.4432 85.3835 11.8068C85.3797 11.2689 85.5256 10.803 85.821 10.4091C86.1203 10.0114 86.535 9.70455 87.0653 9.48864C87.5994 9.26894 88.215 9.15909 88.9119 9.15909C89.9347 9.15909 90.7396 9.37689 91.3267 9.8125C91.9176 10.2481 92.2831 10.8371 92.4233 11.5795ZM107.929 6.36364V18H106.054L100.571 10.0739H100.474V18H98.3665V6.36364H100.253L105.73 14.2955H105.832V6.36364H107.929ZM113.942 18.1705C113.089 18.1705 112.351 17.983 111.726 17.608C111.101 17.233 110.616 16.7083 110.271 16.0341C109.93 15.3598 109.76 14.572 109.76 13.6705C109.76 12.7689 109.93 11.9792 110.271 11.3011C110.616 10.6231 111.101 10.0966 111.726 9.72159C112.351 9.34659 113.089 9.15909 113.942 9.15909C114.794 9.15909 115.533 9.34659 116.158 9.72159C116.783 10.0966 117.266 10.6231 117.607 11.3011C117.951 11.9792 118.124 12.7689 118.124 13.6705C118.124 14.572 117.951 15.3598 117.607 16.0341C117.266 16.7083 116.783 17.233 116.158 17.608C115.533 17.983 114.794 18.1705 113.942 18.1705ZM113.953 16.5227C114.415 16.5227 114.802 16.3958 115.112 16.142C115.423 15.8845 115.654 15.5398 115.805 15.108C115.961 14.6761 116.038 14.1951 116.038 13.6648C116.038 13.1307 115.961 12.6477 115.805 12.2159C115.654 11.7803 115.423 11.4337 115.112 11.1761C114.802 10.9186 114.415 10.7898 113.953 10.7898C113.48 10.7898 113.086 10.9186 112.771 11.1761C112.461 11.4337 112.228 11.7803 112.072 12.2159C111.921 12.6477 111.845 13.1307 111.845 13.6648C111.845 14.1951 111.921 14.6761 112.072 15.108C112.228 15.5398 112.461 15.8845 112.771 16.142C113.086 16.3958 113.48 16.5227 113.953 16.5227ZM124.227 9.27273V10.8636H119.21V9.27273H124.227ZM120.449 7.18182H122.506V15.375C122.506 15.6515 122.547 15.8636 122.631 16.0114C122.718 16.1553 122.831 16.2538 122.972 16.3068C123.112 16.3598 123.267 16.3864 123.438 16.3864C123.566 16.3864 123.684 16.3769 123.79 16.358C123.9 16.339 123.983 16.322 124.04 16.3068L124.386 17.9148C124.277 17.9527 124.119 17.9943 123.915 18.0398C123.714 18.0852 123.468 18.1117 123.176 18.1193C122.661 18.1345 122.197 18.0568 121.784 17.8864C121.371 17.7121 121.044 17.4432 120.801 17.0795C120.563 16.7159 120.445 16.2614 120.449 15.7159V7.18182ZM129.717 18.1705C128.842 18.1705 128.087 17.9886 127.45 17.625C126.818 17.2576 126.331 16.7386 125.99 16.0682C125.649 15.3939 125.479 14.6004 125.479 13.6875C125.479 12.7898 125.649 12.0019 125.99 11.3239C126.335 10.642 126.816 10.1117 127.433 9.73295C128.051 9.35038 128.776 9.15909 129.609 9.15909C130.147 9.15909 130.655 9.24621 131.132 9.42045C131.613 9.59091 132.037 9.85606 132.405 10.2159C132.776 10.5758 133.068 11.0341 133.28 11.5909C133.492 12.1439 133.598 12.803 133.598 13.5682V14.1989H126.445V12.8125H131.626C131.623 12.4186 131.537 12.0682 131.371 11.7614C131.204 11.4508 130.971 11.2064 130.672 11.0284C130.376 10.8504 130.032 10.7614 129.638 10.7614C129.217 10.7614 128.848 10.8636 128.53 11.0682C128.212 11.2689 127.964 11.5341 127.786 11.8636C127.611 12.1894 127.522 12.5473 127.518 12.9375V14.1477C127.518 14.6553 127.611 15.0909 127.797 15.4545C127.982 15.8144 128.242 16.0909 128.575 16.2841C128.909 16.4735 129.299 16.5682 129.746 16.5682C130.045 16.5682 130.316 16.5265 130.558 16.4432C130.801 16.3561 131.011 16.2292 131.189 16.0625C131.367 15.8958 131.501 15.6894 131.592 15.4432L133.513 15.6591C133.392 16.1667 133.161 16.6098 132.82 16.9886C132.482 17.3636 132.051 17.6553 131.524 17.8636C130.998 18.0682 130.395 18.1705 129.717 18.1705ZM142.236 11.5795L140.361 11.7841C140.308 11.5947 140.215 11.4167 140.082 11.25C139.954 11.0833 139.779 10.9489 139.56 10.8466C139.34 10.7443 139.071 10.6932 138.753 10.6932C138.325 10.6932 137.965 10.786 137.673 10.9716C137.385 11.1572 137.243 11.3977 137.247 11.6932C137.243 11.947 137.336 12.1534 137.526 12.3125C137.719 12.4716 138.037 12.6023 138.48 12.7045L139.969 13.0227C140.795 13.2008 141.408 13.483 141.81 13.8693C142.215 14.2557 142.42 14.7614 142.423 15.3864C142.42 15.9356 142.259 16.4205 141.94 16.8409C141.626 17.2576 141.188 17.5833 140.628 17.8182C140.067 18.053 139.423 18.1705 138.696 18.1705C137.628 18.1705 136.768 17.947 136.116 17.5C135.465 17.0492 135.077 16.4223 134.952 15.6193L136.957 15.4261C137.048 15.8201 137.241 16.1174 137.537 16.3182C137.832 16.5189 138.217 16.6193 138.69 16.6193C139.179 16.6193 139.571 16.5189 139.866 16.3182C140.166 16.1174 140.315 15.8693 140.315 15.5739C140.315 15.3239 140.219 15.1174 140.026 14.9545C139.836 14.7917 139.541 14.6667 139.139 14.5795L137.651 14.267C136.813 14.0928 136.194 13.7992 135.793 13.3864C135.391 12.9697 135.192 12.4432 135.196 11.8068C135.192 11.2689 135.338 10.803 135.634 10.4091C135.933 10.0114 136.348 9.70455 136.878 9.48864C137.412 9.26894 138.027 9.15909 138.724 9.15909C139.747 9.15909 140.552 9.37689 141.139 9.8125C141.73 10.2481 142.096 10.8371 142.236 11.5795Z" fill="black"/>
</svg>
